<svg xmlns="http://www.w3.org/2000/svg" width="66.704" height="76.668" viewBox="0 0 66.704 76.668"><defs><style>.a{fill:#ffd200;stroke:rgba(0,0,0,0);stroke-miterlimit:10;}</style></defs><path class="a" d="M3.921,72.638C.781,72-.553,70.3.21,66.88A23.481,23.481,0,0,1,12.275,50.855c2.05-1.147,4.195-2.128,6.3-3.173,5.876-2.921,5.878-2.919,1.982-9,4.715.683,8.054,4.146,12.52,3.485,1.48-.219,3.552.31,3.627-1.937.075-2.266-1.6-2.253-3.143-2.239-.223,0-.444,0-.655,0a34.956,34.956,0,0,0-3.759.137c-5.384.462-9.913-2.963-10.59-8.179a53.3,53.3,0,0,1-.545-7.509C18.17,9.908,29.569,3.2,40.815,8.988a11.282,11.282,0,0,1,6.436,8.74c1.264,8.657.235,16.988-4.376,24.514-1.417,2.312-1.078,3.039,1.137,3.99,3.024,1.3,6,2.736,8.9,4.3C59.452,54.068,63.8,59.3,65.476,66.724c.756,3.338-.3,5.217-3.514,5.878a143.933,143.933,0,0,1-29.105,3A143.936,143.936,0,0,1,3.921,72.638ZM9.263,32.793C7.268,30,7.848,22.02,10.306,19.575c.752-.747,1.606-1.176,1.918-2.445C15.589,3.443,24.886-2.26,38.622.81c9.284,2.075,13.251,6.234,14.907,15.7.16.912.063,1.806,1.008,2.454,4.805,3.3,3.02,8.181,2.536,12.476a4.361,4.361,0,0,1-5.3,3.615c-2.339-.47-1-2.845-1.168-4.349a56.483,56.483,0,0,1-.055-6.113h-.02c0-1.413-.044-2.827.007-4.237.251-7.006-1.7-12.805-8.892-15.438C33.61,1.973,25.9,2.446,19.086,8.093c-2.972,2.462-3.76,6.058-3.823,9.776-.076,4.391.031,8.789-.148,13.177-.055,1.369,1.1,3.474-1.035,4.026a3.705,3.705,0,0,1-.928.12A4.991,4.991,0,0,1,9.263,32.793Z" transform="translate(0.498 0.569)"/></svg>