<svg xmlns="http://www.w3.org/2000/svg" width="79.936" height="83.123" viewBox="0 0 79.936 83.123"><defs><style>.a{fill:#ffd200;stroke:rgba(0,0,0,0);stroke-miterlimit:10;}</style></defs><path class="a" d="M40.847,82.046C37.03,79.477,33.254,76.836,29.637,74a4.217,4.217,0,0,1-1.141-3.16c.212-3.6.708-7.185,1.106-10.773.276-2.495,1.368-3.339,4.138-3.195,4.545.235,8.932.541,12.236,4.035,3.355,3.55,6.486,7.312,9.968,11.27a53.29,53.29,0,0,0-5.784,3.29c-2.478,1.861-4.711,4.046-7.136,5.986a3.47,3.47,0,0,1-1.8.686A.68.68,0,0,1,40.847,82.046Zm23.621-5.165c-6.9-7.043-13.7-14.188-20.463-21.208a25.905,25.905,0,0,0,1.4-4.662c.428-4.38-1.507-6.833-5.8-7.7a10.935,10.935,0,0,0-2.145-.33,16.164,16.164,0,0,1-12.788-5.833c-1.283-1.437-4.253-1.809-6.481-1.889C7.475,34.871,1.081,29.225.044,18.627c-.2-2.081.347-4.234.638-7.259,2.012,1.85,3.4,3.048,4.7,4.34,1.793,1.789,3.46,3.708,5.283,5.464a3.872,3.872,0,0,0,5.42.263A28.157,28.157,0,0,0,18.6,19.372c4.815-4.413,4.788-6.41.061-10.914C16.33,6.24,14.134,3.885,11.6,1.31A14.275,14.275,0,0,1,22.635.926C31.2,3.989,34.934,10.368,35.3,19.242c.09,2.208,1.335,4.358,1.963,6.559a3.46,3.46,0,0,1,.011,1.939c-1.647,4.865.122,8.375,5.058,10.133.684.244,1.586.985,1.676,1.6.468,3.185,2.608,4.781,5.178,6.16.764.41,1.77,1.206,1.848,1.914.313,2.877,2.076,4.443,4.32,5.855a3.7,3.7,0,0,1,1.694,2.374c.173,2.885,1.442,4.806,4.145,5.718a7.2,7.2,0,0,0,7.782-1.564c.385-.367.732-.774,1.643-1.744,2.659,3.38,5.686,6.374,7.637,9.955,1.805,3.315-.272,7.923-3.475,9.883a8.536,8.536,0,0,1-4.441,1.219A8.2,8.2,0,0,1,64.468,76.881Zm2.749-6.949A5.053,5.053,0,0,0,70.293,72.7c1.4.326,2.29-.944,2.245-2.615-.052-1.935-1.125-2.668-3.521-3.239C68.36,67.9,66.948,69.241,67.216,69.932Zm-51.458-8.75c.578-4.926,1.049-9.88,2-14.737.569-2.914,2.427-3.685,5.317-3.191,4.978.848,9.978,1.576,14.94,2.508,2.075.391,4.469.639,4.957,3.422.38,2.166-.142,4.275-2.26,4.992a12.564,12.564,0,0,1-5.814.31c-5.971-.966-8.015.6-8.207,6.654-.1,3.141-.273,6.278-.428,9.8C20.651,68.59,15.3,65.06,15.758,61.182Zm44.4-6.766A49.4,49.4,0,0,1,65,47.262a3.7,3.7,0,0,1,5.331-.877,3.566,3.566,0,0,1,1.014,5.065,63.276,63.276,0,0,1-4.911,7.086,4.852,4.852,0,0,1-1.945,1.11h-.109C60.707,59.647,58.765,57.037,60.154,54.416Zm-5.047-4.072a3.4,3.4,0,0,1-1.31-4.727,45.062,45.062,0,0,1,5.646-8.163c.877-.961,3.163-1.239,4.59-.9,1.12.265,1.9,1.956,2.683,2.841a14.291,14.291,0,0,1-.967,3.166c-1.606,2.488-3.23,4.983-5.074,7.3A3.467,3.467,0,0,1,57.9,51.315,5.2,5.2,0,0,1,55.107,50.344Zm-6.571-7.979c-1.893-1.125-2.737-3.055-1.638-5.121a72.152,72.152,0,0,1,5.1-8.238c.617-.859,2.06-1.121,3.125-1.657,3.838.4,5.665,2.866,4.044,6.1a53.513,53.513,0,0,1-5.247,8.133,3.58,3.58,0,0,1-2.93,1.51A4.838,4.838,0,0,1,48.536,42.366Zm-8.186-8.337a5.071,5.071,0,0,1-.8-4.548A47.141,47.141,0,0,1,44.607,21.5,4.164,4.164,0,0,1,50,20.279c1.112.525,1.8,1.948,2.2,2.416.068,3.482-4.957,11.54-7.417,12.146a5.688,5.688,0,0,1-1.335.147A4.537,4.537,0,0,1,40.351,34.029Z" transform="translate(0.488 0.487)"/></svg>