<svg xmlns="http://www.w3.org/2000/svg" width="96.21" height="43.98" viewBox="0 0 96.21 43.98"><defs><style>.a{fill:#ffd200;}</style></defs><path class="a" d="M-176.263,212.817a35.8,35.8,0,0,1-5.679.908c-28.114.066-56.229.128-84.34-.085-2.1-.017-5.326-1.7-5.953-3.38s1.335-4.335,2.24-6.531c.484-1.175,1.393-2.22,1.673-3.425,4.445-19.055,18.66-30.82,36.941-30.49,18.081.326,31.784,12.5,35.7,31.385a6.782,6.782,0,0,0,3.68,4.033c5.178,2.145,10.556,3.808,15.857,5.654ZM-243.8,179.642c16.842-.738,29.881,5.543,39.49,20.381C-208.928,177.959-232.282,172.062-243.8,179.642Z" transform="translate(272.355 -169.807)"/></svg>