<svg xmlns="http://www.w3.org/2000/svg" width="71.924" height="81.228" viewBox="0 0 71.924 81.228"><defs><style>.a{fill:#fff;stroke:rgba(0,0,0,0);stroke-miterlimit:10;}</style></defs><path class="a" d="M5.438,80.226A5.271,5.271,0,0,1,0,74.8Q0,51.771.005,28.741q0-7.854,0-15.71A5.264,5.264,0,0,1,5.467,7.578l14.161,0h.562c.112-.68.17-1.3.318-1.9a7.541,7.541,0,0,1,14.8.929c.116.961.116.964,1.09.965h4.463q4.741,0,9.483.006a5.224,5.224,0,0,1,5.24,4.484,28.112,28.112,0,0,1,.058,3.2q.007,3.259-.006,6.519a3.91,3.91,0,0,1-3.712,3.876,3.867,3.867,0,0,1-4.131-3.549c-.105-1.972-.048-3.952-.059-5.928,0-.7,0-.7-.7-.7-1.6,0-3.207.009-4.81-.007a.552.552,0,0,0-.637.467,5.223,5.223,0,0,1-5.264,3.94q-8.123.012-16.244-.007a5.227,5.227,0,0,1-4.983-3.883.6.6,0,0,0-.7-.523c-1.941.02-3.884.03-5.824,0-.531-.007-.65.17-.649.67q.022,14.4.013,28.8,0,13.28,0,26.558c0,.819,0,.814.807.814q16.165,0,32.329,0c4.631,0,9.262.008,13.892-.011.529,0,.726.122.689.679-.067.993.047,2.008-.115,2.981a5.176,5.176,0,0,1-5.1,4.255q-10.541.007-21.082,0H5.438ZM24.374,7.482a3.445,3.445,0,1,0,3.474-3.4H27.83A3.475,3.475,0,0,0,24.374,7.482Zm7.457,42.431A19.566,19.566,0,1,1,52.549,68.2q-.591.033-1.174.033A19.494,19.494,0,0,1,31.831,49.912Zm11.253-1.786a2.983,2.983,0,0,0-1.476,4.747q2.643,3.453,5.341,6.867a3.351,3.351,0,0,0,1.209.927,2.971,2.971,0,0,0,3.921-1.58c.894-1.741,1.753-3.5,2.629-5.251q3-5.991,6-11.983a2.994,2.994,0,0,0-1.286-4.114,2.958,2.958,0,0,0-4.057,1.4c-1.474,2.924-2.933,5.855-4.4,8.782-.716,1.428-1.438,2.854-2.2,4.372-.842-1.084-1.614-2.082-2.389-3.078a3.051,3.051,0,0,0-2.405-1.223A2.9,2.9,0,0,0,43.084,48.126ZM23.7,67.317c-2.11-.011-4.22-.01-6.33-.01H14.894a2.23,2.23,0,0,1-.28-.036V57.827c.223-.011.429-.031.636-.031q1.245,0,2.49,0c1.963,0,3.926,0,5.889-.007.394,0,.527.11.526.509-.013,2.829-.008,5.657,0,8.486,0,.32-.033.532-.447.532ZM21.09,64.756c.355.005.463-.136.459-.474-.014-1.157-.017-2.315,0-3.471,0-.36-.146-.456-.479-.452-1.139.014-2.279.019-3.417,0-.358-.005-.466.133-.455.472.018.569,0,1.139,0,1.708h0c0,.588.01,1.175,0,1.762-.008.313.094.45.426.447q.809-.008,1.618-.008Q20.164,64.743,21.09,64.756ZM14.817,53.223a1,1,0,0,1-.192-.049V43.691h.752c2.723,0,5.448.014,8.171-.005.441,0,.6.131.6.562-.006,2.867,0,5.733-.017,8.6,0,.131-.223.376-.344.377q-1.753.009-3.507.008Q17.55,53.232,14.817,53.223ZM17.194,46.7c.011,1.174.014,2.348,0,3.522-.005.368.157.452.483.443.569-.017,1.139,0,1.707,0v0c.587,0,1.174-.009,1.761,0,.3.006.407-.116.4-.411-.01-1.174-.012-2.347,0-3.521,0-.319-.1-.447-.428-.445q-1.76.019-3.522.005h-.007C17.3,46.3,17.192,46.4,17.194,46.7Zm-2.58-7.547v-9.5c.167-.013.322-.036.477-.036H17.5c2.009,0,4.018,0,6.027-.011.424,0,.619.106.618.549-.006,2.866,0,5.731,0,8.6a2.362,2.362,0,0,1-.071.4Zm2.552-6.538c.009,1.191-.006,2.382.022,3.572a.527.527,0,0,0,.353.374q1.813.041,3.626,0a.526.526,0,0,0,.356-.364c.04-.584.017-1.173.019-1.759,0-.6-.011-1.21,0-1.813.008-.315-.1-.451-.428-.449q-1.759.014-3.52,0h-.015C17.266,32.172,17.164,32.314,17.166,32.619Z" transform="translate(0.5 0.501)"/></svg>