<svg xmlns="http://www.w3.org/2000/svg" width="85.879" height="75.665" viewBox="0 0 85.879 75.665"><defs><style>.a{fill:#fff;stroke:rgba(0,0,0,0);stroke-miterlimit:10;}</style></defs><path class="a" d="M64.794,68.3a10.548,10.548,0,0,1,1.533-.269c1.183-.041,2.367-.013,4.079-.013-.329,2.425-.589,4.343-.841,6.2a14.485,14.485,0,0,1-2.768.438C64.876,74.665,64.769,73.238,64.794,68.3ZM15.347,74.465c-.279-1.913-.572-3.914-.912-6.238h5.628c.044,5.307.05,6.407-2.329,6.407C17.114,74.634,16.332,74.559,15.347,74.465ZM42.1,64.485c-8.841,0-17.682.02-26.524-.009-4.831-.014-6.562-1.724-6.671-6.579-.064-2.872-.074-5.748,0-8.62.125-4.634,1.863-6.418,6.493-6.47,7.183-.079,14.368-.022,21.55-.022q15.748,0,31.5,0c5.9.011,7.469,1.589,7.512,7.475.018,2.542.05,5.085-.011,7.625-.114,4.858-1.839,6.575-6.665,6.588q-5.723.018-11.447.016Q49.973,64.492,42.1,64.485Zm23.789-25.24a29.706,29.706,0,0,1-6.392-.265,31.081,31.081,0,0,1,2.442-4.117c3.2-3.908,6.359-7.877,9.866-11.5,2.891-2.989,6.8-2.848,10.147-.213,3.107,2.446,3.721,5.58,1.679,9.392-.879,1.642-2.069,3.114-3.036,4.713s-1.819,3.238-2.894,5.169C74.119,38.984,70.068,39.115,65.893,39.245ZM1,32.04c-1.852-3.485-1.07-6.485,1.821-8.822,3.11-2.511,6.86-2.819,9.67-.373A55.717,55.717,0,0,1,25.5,39.271a88.957,88.957,0,0,0-9.807.078,77.057,77.057,0,0,0-8.964,2.118C5.067,38.759,2.842,35.5,1,32.04Zm51.812,7.28c-6.961-.128-13.926-.113-20.886-.007a3.414,3.414,0,0,1-3.546-2.168A56.435,56.435,0,0,0,11.724,17.763C18.207,5.867,28.487.248,41.665.008,55.408-.242,66.191,5.32,73.174,17.743a56.616,56.616,0,0,0-16.6,19.216c-.871,1.61-1.761,2.362-3.631,2.362Z" transform="translate(0.539 0.5)"/></svg>