<svg xmlns="http://www.w3.org/2000/svg" width="67.679" height="86.022" viewBox="0 0 67.679 86.022"><defs><style>.a{fill:#fff;stroke:rgba(0,0,0,0);stroke-miterlimit:10;}</style></defs><path class="a" d="M31.248,83.824q-3.865-3.848-7.707-7.718c-3.577-3.59-4.122-8.067-1.381-11.3,2.711-3.2,7.091-3.445,11.3-.558,4.945-4.148,11.311-1.54,12.625,3.144A7.8,7.8,0,0,1,44.107,75.3c-2.817,2.964-5.746,5.822-8.659,8.693A2.9,2.9,0,0,1,33.461,85,3.271,3.271,0,0,1,31.248,83.824ZM7.786,69.206c-8.15-3.6-8.936-6.061-6.719-13.954C3.526,46.5,9.508,41,18.32,38.726a4.286,4.286,0,0,1,2.859.511c8.229,4.624,16.385,4.631,24.587-.068a4.119,4.119,0,0,1,2.69-.47A23.706,23.706,0,0,1,66.722,60.123a6.9,6.9,0,0,1-3.133,6.657c-4.067,2.84-8.716,4.148-13.822,5.162.22-3.358-.1-6.268-2.057-8.789a11.146,11.146,0,0,0-12.918-3.662,3.537,3.537,0,0,1-2.334.136c-8.12-3.4-16.236,3.254-15.4,10.815.041.381.005.77.005,1.717A87.841,87.841,0,0,1,7.786,69.206ZM23.832,34.5C15.345,27.769,13.158,15.967,18.838,7.54c4.421-6.561,12.74-9.176,20.687-6.5C46.6,3.413,51.617,10.844,51.166,19.5a21.083,21.083,0,0,1-8.308,15.118,15.084,15.084,0,0,1-9.4,3.38A15.467,15.467,0,0,1,23.832,34.5Z" transform="translate(0.433 0.522)"/></svg>