<svg xmlns="http://www.w3.org/2000/svg" width="81" height="81" viewBox="0 0 81 81"><defs><style>.a{fill:#fff;stroke:rgba(0,0,0,0);stroke-miterlimit:10;}</style></defs><path class="a" d="M37.344,80c-1.081-.156-2.159-.328-3.242-.464a37.046,37.046,0,0,1-11.653-3.569,33.765,33.765,0,0,1-8.2-5.419,56.622,56.622,0,0,1-5.386-5.424,36.768,36.768,0,0,1-5.172-8.347A38.14,38.14,0,0,1,.31,44.583c-.07-.75-.205-1.494-.31-2.239V37.656a2.359,2.359,0,0,0,.151-.47c.168-1.509.212-3.042.506-4.526a38.4,38.4,0,0,1,5-13.1,56.53,56.53,0,0,1,4.5-6.142,38.369,38.369,0,0,1,4.012-3.887,29.964,29.964,0,0,1,7.06-4.8,67.124,67.124,0,0,1,7.626-3.1A30.439,30.439,0,0,1,37.415.151,4.046,4.046,0,0,0,38.125,0h3.75c.853.1,1.7.238,2.56.308A34.863,34.863,0,0,1,52.7,2.075,39.995,39.995,0,0,1,73.01,17.439a40.49,40.49,0,0,1,4.256,8.046,37.087,37.087,0,0,1,2.426,9.93c.072.75.2,1.494.308,2.241v4.688c-.105.772-.173,1.553-.322,2.317-.467,2.388-.855,4.8-1.479,7.148A30.518,30.518,0,0,1,74.8,59.717a42.591,42.591,0,0,1-3.83,5.576,62,62,0,0,1-5.343,5.368,29.513,29.513,0,0,1-7.12,4.8,49.124,49.124,0,0,1-6.92,2.778,65.831,65.831,0,0,1-6.686,1.438c-.741.148-1.5.214-2.249.319ZM64.274,65.119A34.951,34.951,0,0,0,34.128,5.5,34.064,34.064,0,0,0,14.381,16.18,34.237,34.237,0,0,0,5.039,37.915a34.181,34.181,0,0,0,5.515,21.016,27.839,27.839,0,0,0,4.685,5.733C19.447,53.906,27.075,47.7,38.553,46.928q.775-.052,1.555-.052A25.59,25.59,0,0,1,64.274,65.119ZM24.829,26.69a14.938,14.938,0,1,1,14.8,15.964c-.147.005-.295.008-.442.008A14.907,14.907,0,0,1,24.829,26.69Z" transform="translate(0.5 0.5)"/></svg>