<svg xmlns="http://www.w3.org/2000/svg" width="50.201" height="56.663" viewBox="0 0 50.201 56.663"><defs><style>.a{fill:#ffd200;stroke:rgba(0,0,0,0);stroke-miterlimit:10;}</style></defs><path class="a" d="M3.773,55.654A3.656,3.656,0,0,1,0,51.892Q0,35.915,0,19.938q0-5.449,0-10.9A3.651,3.651,0,0,1,3.792,5.257l9.823,0h.391c.077-.472.118-.9.22-1.316a5.232,5.232,0,0,1,10.265.644c.08.667.08.669.756.669,3.225,0,6.45,0,9.675.005a3.623,3.623,0,0,1,3.635,3.109,19.444,19.444,0,0,1,.04,2.222q0,2.261,0,4.523A2.711,2.711,0,0,1,36.017,17.8a2.683,2.683,0,0,1-2.866-2.462c-.073-1.368-.032-2.741-.041-4.113,0-.489,0-.489-.49-.489-1.112,0-2.224.006-3.336,0a.383.383,0,0,0-.442.323,3.623,3.623,0,0,1-3.652,2.734q-5.634.008-11.269-.005a3.626,3.626,0,0,1-3.457-2.694.414.414,0,0,0-.482-.363c-1.346.014-2.694.021-4.04,0-.368-.005-.451.118-.45.464q.015,9.991.008,19.981,0,9.212,0,18.424c0,.568,0,.564.56.564q11.213,0,22.427,0c3.212,0,6.425.006,9.638-.007.366,0,.5.085.478.471-.047.688.031,1.393-.08,2.068a3.589,3.589,0,0,1-3.537,2.951q-9.972.008-19.943,0H3.773ZM16.908,5.19a2.39,2.39,0,1,0,2.41-2.361h-.013A2.41,2.41,0,0,0,16.908,5.19Zm5.174,29.435a13.573,13.573,0,1,1,14.372,12.69c-.273.015-.546.023-.815.023A13.521,13.521,0,0,1,22.082,34.625Zm7.806-1.239a2.069,2.069,0,0,0-1.024,3.293c1.223,1.6,2.453,3.19,3.705,4.765a2.33,2.33,0,0,0,.84.643,2.061,2.061,0,0,0,2.72-1.1c.62-1.209,1.216-2.428,1.824-3.643q2.079-4.157,4.16-8.313a2.078,2.078,0,0,0-.893-2.854,2.054,2.054,0,0,0-2.814.969c-1.022,2.029-2.035,4.063-3.054,6.093-.5.991-1,1.98-1.529,3.033-.583-.752-1.12-1.444-1.657-2.136a2.116,2.116,0,0,0-1.669-.848A2.01,2.01,0,0,0,29.888,33.386ZM16.441,46.7Q14.22,46.688,12,46.693H10.333a1.5,1.5,0,0,1-.194-.025V40.116c.154-.007.3-.022.441-.022,1.938,0,3.875.006,5.813,0,.273,0,.365.076.365.354-.009,1.962-.005,3.924,0,5.886,0,.222-.023.369-.309.369ZM14.63,44.923c.247,0,.321-.094.319-.329q-.015-1.2,0-2.408c0-.25-.1-.317-.332-.313-.79.01-1.58.013-2.371,0-.248,0-.323.093-.316.328.013.394,0,.79,0,1.185h0c0,.408.007.815,0,1.222-.005.217.065.312.3.311q.559-.006,1.118-.006Q13.986,44.914,14.63,44.923Zm-4.352-8a.7.7,0,0,1-.133-.034V30.31h.522c1.889,0,3.779.01,5.669,0,.305,0,.418.091.418.389,0,1.989,0,3.977-.013,5.966,0,.091-.155.261-.239.261q-1.268.007-2.537.006Q12.122,36.928,10.279,36.923Zm4.388-1.773c.207,0,.283-.08.281-.285-.006-.814-.008-1.629,0-2.443,0-.221-.073-.311-.3-.309q-1.22.014-2.443,0c-.2,0-.283.074-.281.283.008.814.01,1.628,0,2.443,0,.256.109.314.335.307.4-.011.79,0,1.184,0h0l.7,0C14.318,35.145,14.493,35.146,14.667,35.15Zm-4.529-7.986V20.577c.116-.009.223-.025.33-.025h1.756c1.365,0,2.732,0,4.1-.007.294,0,.429.074.429.381,0,1.988,0,3.977,0,5.965a1.669,1.669,0,0,1-.049.274Zm1.77-4.535c.005.826,0,1.652.015,2.478a.366.366,0,0,0,.245.26q1.257.028,2.515,0a.363.363,0,0,0,.248-.252c.027-.405.012-.814.013-1.22s-.007-.839,0-1.258c.005-.218-.07-.313-.3-.311q-1.22.009-2.442,0H12.2C11.979,22.318,11.907,22.416,11.909,22.629Z" transform="translate(0.5 0.508)"/></svg>