<svg xmlns="http://www.w3.org/2000/svg" width="47.142" height="59.837" viewBox="0 0 47.142 59.837"><defs><style>.a{fill:#ffd200;stroke:rgba(0,0,0,0);stroke-miterlimit:10;}</style></defs><path class="a" d="M21.624,58.009q-2.674-2.662-5.333-5.341c-2.475-2.484-2.852-5.583-.955-7.821,1.876-2.214,4.907-2.385,7.816-.386a5.31,5.31,0,1,1,7.371,7.646c-1.949,2.051-3.976,4.029-5.993,6.016a2,2,0,0,1-1.375.7A2.263,2.263,0,0,1,21.624,58.009ZM5.388,47.893C-.252,45.4-.8,43.7.738,38.236c1.7-6.06,5.842-9.862,11.94-11.437a2.965,2.965,0,0,1,1.979.354,16.164,16.164,0,0,0,17.015-.048,2.855,2.855,0,0,1,1.861-.325,16.4,16.4,0,0,1,12.64,14.826,4.772,4.772,0,0,1-2.167,4.607,24.478,24.478,0,0,1-9.566,3.572c.152-2.323-.068-4.336-1.424-6.082a7.713,7.713,0,0,0-8.94-2.534,2.448,2.448,0,0,1-1.615.094c-5.619-2.352-11.236,2.252-10.655,7.484.029.264,0,.533,0,1.188A60.76,60.76,0,0,1,5.388,47.893Zm11.1-24.019C10.619,19.217,9.106,11.05,13.036,5.218A12.272,12.272,0,0,1,27.352.716C32.245,2.362,35.72,7.5,35.408,13.492a14.585,14.585,0,0,1-5.749,10.462,10.438,10.438,0,0,1-6.5,2.339A10.7,10.7,0,0,1,16.493,23.873Z" transform="translate(0.453 0.516)"/></svg>