<svg xmlns="http://www.w3.org/2000/svg" width="62.776" height="55.334" viewBox="0 0 62.776 55.334"><defs><style>.a{fill:#ffd200;stroke:rgba(0,0,0,0);stroke-miterlimit:10;}</style></defs><path class="a" d="M47.152,49.706a7.929,7.929,0,0,1,1.115-.2c.86-.03,1.723-.009,2.969-.009l-.612,4.515a10.539,10.539,0,0,1-2.015.319C47.211,54.335,47.134,53.3,47.152,49.706ZM11.169,54.19c-.2-1.392-.417-2.848-.664-4.539h4.1c.032,3.861.037,4.662-1.694,4.662C12.455,54.313,11.886,54.259,11.169,54.19ZM30.64,46.927c-6.433,0-12.867.014-19.3-.005-3.516-.012-4.775-1.256-4.855-4.788-.047-2.091-.054-4.183,0-6.273.091-3.373,1.355-4.671,4.725-4.709,5.227-.058,10.455-.017,15.683-.017q11.46,0,22.92,0c4.293.007,5.436,1.156,5.467,5.439.014,1.849.037,3.7-.007,5.549-.084,3.535-1.338,4.784-4.85,4.794q-4.029.012-8.06.01Q36.5,46.932,30.64,46.927ZM47.952,28.56a21.635,21.635,0,0,1-4.651-.193,22.7,22.7,0,0,1,1.776-3c2.33-2.844,4.629-5.732,7.18-8.37,2.1-2.175,4.952-2.073,7.384-.156,2.261,1.78,2.707,4.061,1.221,6.835-.64,1.194-1.5,2.266-2.209,3.429s-1.324,2.358-2.106,3.762C53.939,28.371,50.99,28.465,47.952,28.56ZM.728,23.316A4.7,4.7,0,0,1,2.053,16.9c2.263-1.828,4.992-2.052,7.038-.271a40.551,40.551,0,0,1,9.467,11.952,64.885,64.885,0,0,0-7.137.058A56.073,56.073,0,0,0,4.9,30.176C3.687,28.206,2.068,25.835.728,23.316Zm37.7,5.3c-5.064-.094-10.133-.083-15.2-.005a2.485,2.485,0,0,1-2.58-1.578,41.066,41.066,0,0,0-12.121-14.1C13.25,4.27,20.731.18,30.32.006c10-.183,17.85,3.865,22.93,12.906A41.208,41.208,0,0,0,41.172,26.9a2.663,2.663,0,0,1-2.646,1.719Z" transform="translate(0.532 0.5)"/></svg>