<svg xmlns="http://www.w3.org/2000/svg" width="70.759" height="32.346" viewBox="0 0 70.759 32.346"><defs><style>.a{fill:#ffd200;}</style></defs><path class="a" d="M-201.684,201.439a26.331,26.331,0,0,1-4.177.668c-20.676.049-41.354.094-62.028-.063-1.544-.012-3.917-1.249-4.378-2.486s.982-3.188,1.648-4.8a18.164,18.164,0,0,0,1.231-2.519c3.269-14.014,13.724-22.667,27.169-22.424,13.3.24,23.376,9.192,26.255,23.082a4.988,4.988,0,0,0,2.706,2.966c3.808,1.578,7.764,2.8,11.662,4.159Zm-49.668-24.4c12.387-.542,21.976,4.077,29.043,14.99C-225.707,175.8-242.883,171.466-251.352,177.04Z" transform="translate(272.355 -169.807)"/></svg>