<svg xmlns="http://www.w3.org/2000/svg" width="54.922" height="54.921" viewBox="0 0 54.922 54.921"><defs><style>.a{fill:#ffd200;stroke:rgba(0,0,0,0);stroke-miterlimit:10;}</style></defs><path class="a" d="M25.17,53.921c-.728-.1-1.455-.221-2.185-.312A24.955,24.955,0,0,1,15.131,51.2,22.761,22.761,0,0,1,9.6,47.551a38.226,38.226,0,0,1-3.63-3.656,24.755,24.755,0,0,1-3.486-5.626A25.7,25.7,0,0,1,.21,30.05C.162,29.544.071,29.043,0,28.541v-3.16a1.687,1.687,0,0,0,.1-.317c.113-1.017.142-2.05.34-3.051a25.883,25.883,0,0,1,3.371-8.828A38.207,38.207,0,0,1,6.845,9.044a25.838,25.838,0,0,1,2.7-2.619,20.232,20.232,0,0,1,4.758-3.238A45.436,45.436,0,0,1,19.448,1.1,20.548,20.548,0,0,1,25.219.1,2.727,2.727,0,0,0,25.7,0h2.527c.576.07,1.149.16,1.726.207A23.571,23.571,0,0,1,35.522,1.4a26.825,26.825,0,0,1,9.309,5.386,26.556,26.556,0,0,1,4.378,4.97,27.292,27.292,0,0,1,2.869,5.423,24.984,24.984,0,0,1,1.635,6.692c.049.506.138,1.008.208,1.511v3.16c-.071.52-.117,1.047-.217,1.561-.315,1.61-.577,3.236-1,4.818a20.557,20.557,0,0,1-2.289,5.331,28.613,28.613,0,0,1-2.581,3.758,41.771,41.771,0,0,1-3.6,3.618,19.9,19.9,0,0,1-4.8,3.238,33.03,33.03,0,0,1-4.665,1.873,44.453,44.453,0,0,1-4.506.969c-.5.1-1.011.145-1.516.214Zm18.152-10.03A23.558,23.558,0,0,0,23,3.709a22.96,22.96,0,0,0-13.31,7.2A23.073,23.073,0,0,0,3.4,25.556,23.037,23.037,0,0,0,7.114,39.721a18.825,18.825,0,0,0,3.158,3.865c2.836-7.251,7.977-11.435,15.714-11.955q.523-.035,1.048-.035A17.25,17.25,0,0,1,43.322,43.891ZM16.735,17.99a10.069,10.069,0,1,1,9.978,10.76q-.148.005-.3.005A10.05,10.05,0,0,1,16.735,17.99Z" transform="translate(0.5 0.5)"/></svg>