<svg xmlns="http://www.w3.org/2000/svg" width="36.114" height="36.114" viewBox="0 0 36.114 36.114"><defs><style>.a{fill:#ffd200;}</style></defs><path class="a" d="M18.058,36.114A18.057,18.057,0,0,1,5.289,5.289,18.057,18.057,0,1,1,30.825,30.825,17.938,17.938,0,0,1,18.058,36.114ZM9.573,8.025a1.461,1.461,0,0,0-1.055.424,1.377,1.377,0,0,0-.436,1.02v17.2a1.339,1.339,0,0,0,.436,1.009,1.45,1.45,0,0,0,1.031.413H26.564a1.456,1.456,0,0,0,1.031-.413,1.342,1.342,0,0,0,.436-1.009V9.469a1.38,1.38,0,0,0-.436-1.02,1.464,1.464,0,0,0-1.055-.424Zm9.24,16.808h-3V20.614c.014-2.86.014-4.488,0-4.837h3v1.283a3.574,3.574,0,0,1,.895-.986,3.207,3.207,0,0,1,1.812-.5A3.232,3.232,0,0,1,24,16.556a4.41,4.41,0,0,1,.986,3.072v5.2h-3V19.972a2.685,2.685,0,0,0-.344-1.468,1.326,1.326,0,0,0-1.169-.573,1.527,1.527,0,0,0-1.009.345,1.833,1.833,0,0,0-.551.756,2.265,2.265,0,0,0-.092.733v5.068Zm-4.677,0h-3V15.775h3v9.057Zm-1.514-10.3H12.6a1.642,1.642,0,0,1-1.192-.447,1.509,1.509,0,0,1-.459-1.123,1.493,1.493,0,0,1,.471-1.124,1.717,1.717,0,0,1,1.227-.446,1.675,1.675,0,0,1,1.215.446,1.6,1.6,0,0,1,0,2.247A1.7,1.7,0,0,1,12.622,14.537Z"/></svg>