<svg xmlns="http://www.w3.org/2000/svg" width="37.24" height="36.175" viewBox="0 0 37.24 36.175"><defs><style>.a{fill:#ffd200;}</style></defs><path class="a" d="M18.62,36.176a18.777,18.777,0,0,1-13.166-5.3,17.724,17.724,0,0,1,0-25.58A18.778,18.778,0,0,1,18.62,0,18.778,18.778,0,0,1,31.786,5.3a17.724,17.724,0,0,1,0,25.58A18.777,18.777,0,0,1,18.62,36.176Zm-3.942-21.2v3.341h1.866v9.481h3.948V18.311h2.647l.347-3.341H20.492V13a.917.917,0,0,1,.282-.737.844.844,0,0,1,.543-.174h2.126V8.831l-2.929-.022a4.184,4.184,0,0,0-2.473.694,3.352,3.352,0,0,0-1.193,1.584,4.732,4.732,0,0,0-.3,1.714v2.17Z"/></svg>