<svg xmlns="http://www.w3.org/2000/svg" width="37.019" height="37.018" viewBox="0 0 37.019 37.018"><defs><style>.a{fill:#ffd200;}</style></defs><path class="a" d="M18.509,37.018A18.509,18.509,0,0,1,5.421,5.421,18.509,18.509,0,0,1,31.6,31.6,18.388,18.388,0,0,1,18.509,37.018ZM17.428,12.807a1.815,1.815,0,0,0-1.151.411,2.858,2.858,0,0,0-.823,1.1,3.862,3.862,0,0,0-.306,1.563,4.967,4.967,0,0,0,.094.964,4.124,4.124,0,0,0,.188.658l.094.235L14,24.182a12.916,12.916,0,0,0-.023,4.49.115.115,0,0,0,.106.117.238.238,0,0,0,.05.005.173.173,0,0,0,.127-.052c.4-.527.712-.962.916-1.292a10.02,10.02,0,0,0,1.222-2.586l.823-3.244a2.51,2.51,0,0,0,1.129,1.046,3.733,3.733,0,0,0,1.763.435,5.539,5.539,0,0,0,3.337-1.082,6.965,6.965,0,0,0,2.221-2.878,10.266,10.266,0,0,0,.811-4.149,6.325,6.325,0,0,0-.94-3.314,6.853,6.853,0,0,0-2.609-2.468,7.914,7.914,0,0,0-3.918-.985H19A9.3,9.3,0,0,0,14.3,9.4a7.643,7.643,0,0,0-2.821,2.821,6.678,6.678,0,0,0-.941,3.384,5.968,5.968,0,0,0,.61,2.774,3.556,3.556,0,0,0,1.81,1.763.61.61,0,0,0,.186.032.42.42,0,0,0,.191-.045.407.407,0,0,0,.211-.293l.258-.94a.762.762,0,0,0,.012-.353.931.931,0,0,0-.2-.306,3.551,3.551,0,0,1-.775-2.327,5.711,5.711,0,0,1,.716-2.8,5.344,5.344,0,0,1,2.011-2.045,5.917,5.917,0,0,1,3.1-.822,5.662,5.662,0,0,1,2.68.611,3.97,3.97,0,0,1,1.657,1.586,4.706,4.706,0,0,1,.575,2.338A9.914,9.914,0,0,1,23.1,17.92a5.725,5.725,0,0,1-1.3,2.267,2.737,2.737,0,0,1-1.975.869,2,2,0,0,1-1.093-.306,1.727,1.727,0,0,1-.694-.834,1.885,1.885,0,0,1-.07-1.139c.089-.342.223-.82.424-1.5.218-.689.361-1.179.423-1.457A5.324,5.324,0,0,0,19,14.594a1.78,1.78,0,0,0-.377-1.246A1.44,1.44,0,0,0,17.428,12.807Z"/></svg>