<svg xmlns="http://www.w3.org/2000/svg" width="37.24" height="36.175" viewBox="0 0 37.24 36.175"><defs><style>.a{fill:#ffd200;}</style></defs><path class="a" d="M18.62,36.176a18.777,18.777,0,0,1-13.166-5.3,17.724,17.724,0,0,1,0-25.58A18.778,18.778,0,0,1,18.62,0,18.778,18.778,0,0,1,31.786,5.3a17.724,17.724,0,0,1,0,25.58A18.777,18.777,0,0,1,18.62,36.176ZM8.2,25.008h0a11.911,11.911,0,0,0,3.094,1.4,12.254,12.254,0,0,0,3.475.5,12.485,12.485,0,0,0,5.213-1.094,11.62,11.62,0,0,0,3.808-2.858,12.827,12.827,0,0,0,2.333-3.9,12.419,12.419,0,0,0,.786-4.284v-.547a9.013,9.013,0,0,0,2.142-2.237,8.76,8.76,0,0,1-2.476.69,4.406,4.406,0,0,0,1.155-1.012,4.14,4.14,0,0,0,.725-1.368,8.34,8.34,0,0,1-2.713,1.047,4.237,4.237,0,0,0-3.118-1.357,4.138,4.138,0,0,0-2.13.583,4.335,4.335,0,0,0-1.559,1.559,4.184,4.184,0,0,0-.572,2.142,4.946,4.946,0,0,0,.1.976,12.1,12.1,0,0,1-4.927-1.332,12.226,12.226,0,0,1-3.88-3.142,4.271,4.271,0,0,0-.571,2.142,4.208,4.208,0,0,0,.511,2.036,4.33,4.33,0,0,0,1.392,1.534,4.021,4.021,0,0,1-1.951-.547v.072A4.479,4.479,0,0,0,9.5,17.9a4.273,4.273,0,0,0,1.226,1.5,4.146,4.146,0,0,0,1.738.8,4.431,4.431,0,0,1-1.119.143,4.266,4.266,0,0,1-.786-.071,4.143,4.143,0,0,0,1.5,2.106,4.3,4.3,0,0,0,2.476.869,8.92,8.92,0,0,1-2.476,1.332,8.523,8.523,0,0,1-2.832.476C8.869,25.056,8.525,25.04,8.2,25.008Z"/></svg>