<svg xmlns="http://www.w3.org/2000/svg" width="36.176" height="36.175" viewBox="0 0 36.176 36.175"><defs><style>.a{fill:#ffd200;}</style></defs><path class="a" d="M18.088,36.176A18.088,18.088,0,0,1,5.3,5.3a18.088,18.088,0,1,1,25.58,25.58A17.97,17.97,0,0,1,18.088,36.176ZM13.576,10.023A7.865,7.865,0,0,0,9.544,11.1,8.029,8.029,0,0,0,6.637,14a7.777,7.777,0,0,0-1.094,4.03,7.93,7.93,0,0,0,1.094,4.06,8.043,8.043,0,0,0,2.908,2.894,7.865,7.865,0,0,0,4.031,1.079,7.906,7.906,0,0,0,4.017-1.007A7.078,7.078,0,0,0,20.3,22.276a8.362,8.362,0,0,0,.964-4.045,5.557,5.557,0,0,0-.115-1.354H13.576v2.764h4.549a3.581,3.581,0,0,1-.575,1.411,4.081,4.081,0,0,1-1.44,1.41,4.889,4.889,0,0,1-2.534.634,4.8,4.8,0,0,1-2.49-.677A5.068,5.068,0,0,1,9.27,20.578a5.088,5.088,0,0,1,0-5.068,5.2,5.2,0,0,1,1.814-1.858,4.893,4.893,0,0,1,4.449-.288,4.617,4.617,0,0,1,1.238.835l2.188-2.073A7.712,7.712,0,0,0,13.576,10.023Zm10.308,6.853v2.3h2.274v2.274h2.3V19.18h2.3v-2.3h-2.3V14.6h-2.3v2.274Z"/></svg>