<svg xmlns="http://www.w3.org/2000/svg" width="37.396" height="37.335" viewBox="0 0 37.396 37.335"><defs><style>.a{fill:#ffd200;stroke:rgba(0,0,0,0);stroke-miterlimit:10;}</style></defs><path class="a" d="M18.2,36.328C8.369,36.6-.021,28.115,0,18.142A18.416,18.416,0,0,1,18.3,0,18.29,18.29,0,0,1,36.4,18.245,18.076,18.076,0,0,1,18.69,36.335C18.526,36.335,18.363,36.333,18.2,36.328ZM8.075,5.927A3.174,3.174,0,0,0,5.241,8.774a43.464,43.464,0,0,0-.118,5.95q-.042,5.914,0,11.827c.014,2.44,1.269,3.964,3.36,3.977,6.474.037,12.948.023,19.422.018a3.082,3.082,0,0,0,2.813-1.715c.916-1.658.418-3.438.552-5.352-4.112,3.682-8.614,4.945-13.72,3.539A5.823,5.823,0,0,0,14,27.087a7.1,7.1,0,0,1-4.3.264c.546-.419,1-.719,1.394-1.079,1.3-1.173,1.32-1.709.179-2.983A10.842,10.842,0,0,1,11.7,7.968,19.516,19.516,0,0,1,14.4,5.894c-1.358,0-2.635-.036-3.878-.036C9.7,5.858,8.885,5.874,8.075,5.927Zm9.337,12.344a2.024,2.024,0,0,0,2.827.771c.2-.109.34-.026.527.038.8.27,1.151.041,1.178-.785.031-.959.022-1.92,0-2.879-.014-.738-.385-1.094-1.117-.814a.86.86,0,0,1-.7,0,2.254,2.254,0,0,0-3.047,2.474c.043.369.256.724.109,1.112C17.267,18.209,17.37,18.216,17.411,18.271Zm9.39-3.892A2.368,2.368,0,0,0,24.477,16.9a2.274,2.274,0,0,0,2.362,2.444A2.382,2.382,0,0,0,29.3,16.847a2.394,2.394,0,0,0-2.453-2.468Zm-4.251-.986c.009.8,0,1.6,0,2.4,0,.832.006,1.664,0,2.5,0,.506.12.923.721.9.528-.015.679-.386.677-.862q-.008-2.5,0-4.992c0-.478-.164-.864-.675-.869H23.26C22.7,12.469,22.545,12.886,22.55,13.393Zm-6.429,5.784c.728.026,1.089-.255,1.053-.995a2.4,2.4,0,0,0-1.709-.35,3.52,3.52,0,0,1-1.375-.123c.909-1.17,1.8-2.254,2.618-3.392.59-.819.308-1.318-.7-1.34-.993-.022-1.986,0-2.979,0-.448,0-.882.07-.859.646.021.515.437.545.84.575a5.634,5.634,0,0,0,.6,0,3.144,3.144,0,0,1,1.354.158c-.892,1.144-1.736,2.224-2.578,3.306-.238.3-.5.608-.308,1.036.212.465.638.474,1.064.474.6,0,1.192-.01,1.788-.01C15.328,19.158,15.725,19.163,16.122,19.177Zm9.734-2.3c.113-.631.32-1.156,1-1.15.724.005.962.526.959,1.175,0,.62-.259,1.087-.935,1.088h0C26.137,17.986,25.968,17.414,25.856,16.873Zm-6.4,1.106c-.669-.023-.9-.514-.928-1.152.059-.609.3-1.137,1.025-1.105.651.029.92.518.914,1.132-.006.643-.275,1.126-.959,1.126Z" transform="translate(0.5 0.5)"/></svg>